<svg id="Layer_1" data-name="Layer 1" xmlns="http://www.w3.org/2000/svg" viewBox="0 0 458.79 458.79"><title>breakfast-icon</title><path d="M256.14,18.75C383.2,19,485.28,122,484.83,249.66c-.44,126.14-103.42,228.1-230.14,227.88C127.62,477.31,25.56,374.22,26,246.58,26.52,120.31,129.3,18.54,256.14,18.75Zm54.29,220.17C342,239,363,222,369.92,195.69a39.72,39.72,0,0,1,7.68-15.31c14.36-16.85,19-35.47,10.64-56.14-8.11-20-24.06-30.17-45.2-32.77-4.21-.52-9.29-.33-12.35-2.63-15-11.27-29.64-11.67-45.24-1.18-3.1,2.08-8.19,1.55-12.37,1.6-26.11.32-46.78,16.2-52.6,40.63-5.7,23.87,6.71,47.6,29.69,59.59,5.86,3.06,11.36,9.16,14.22,15.2C274.79,226.57,291.41,238.07,310.43,238.92Zm-187-3.4c.08-1.63.2-3.26.23-4.9.46-21.15-10.16-34.48-27.88-35s-29.33,12.09-30.3,33.16c-1.87,40.37,11.42,75,40,103.45,22,21.83,48.63,34.77,79.73,37.3,15.08,1.23,25.37-6.68,29.6-20.65,4.07-13.44-.67-25.07-12.91-32.19-5.46-3.17-12.22-4.31-18.54-5.77C146.93,302.51,123.35,273,123.46,235.52ZM199.74,179c1.71-13.43-1.5-26-15.88-33.16-18.54-9.26-38,2.42-41.46,24.67C131.92,238,191,311.9,259.27,316.94c14.84,1.1,25.73-4.72,31.22-18.44,7.29-18.24-4.14-34.67-26.78-39.65C222.79,249.83,199.41,221.11,199.74,179Zm248.94,88.9c-.21-2.63-.41-5.27-.61-7.9-4.13,0-8.57-1-12.3.22-6.63,2.15-12.56,6.8-19.26,8.35-17.95,4.15-28,14.67-32.26,32.61-4.91,20.84-18.6,34.38-39.48,39.33-17.86,4.23-28,14.42-32.34,32.44-5.12,21.4-19.45,34.52-40.95,40.09-6.27,1.63-12.05,5.15-22.46,9.75,7.94,3.2,11.45,6.1,14.08,5.45,30.16-7.39,54.95-21.29,62.31-54.73,2.49-11.3,9.09-17.78,20.53-20.49,26.84-6.35,43.95-23.26,50.36-50.06,2.92-12.19,10.15-18,21.68-21.58C428.58,278.06,438.47,272.45,448.68,267.87ZM430.24,241c-8.18-3.65-12.05-7.09-14.87-6.38-29.95,7.62-54.12,21.39-62.94,54.64-2.13,8.05-12,17.32-20.18,19.9-26.41,8.3-43.56,24.26-50.17,50.87-2.83,11.42-9.05,17.32-20.17,20.87-11.36,3.63-21.91,9.8-32.82,14.86l1.62,6.79c4.17,0,8.65,1,12.44-.22,6.14-1.95,11.57-6.59,17.75-7.85,18.8-3.84,29.22-14.75,33.6-33.31,4.76-20.24,18.06-33.71,38.24-38.5,18.54-4.41,29.3-14.68,33.65-33.3,4.72-20.26,18.24-32.82,38.11-38.85C411.56,248.39,418.36,245.44,430.24,241Z" transform="translate(-26.04 -18.75)"/><path d="M322.65,182.67a30.69,30.69,0,0,1-30.19-30.28c0-16.26,13.79-30.22,30.17-30.45,17-.24,31.41,14.32,30.9,31.24A30.61,30.61,0,0,1,322.65,182.67Z" transform="translate(-26.04 -18.75)"/></svg>