<svg xmlns="http://www.w3.org/2000/svg" viewBox="0 0 535.98 158.87"><defs><style>.cls-1{fill:#8cc63f;}.cls-2{fill:#39b54a;}.cls-3{font-size:85.2px;fill:#fff;font-family:MicrosoftNewTaiLue-Bold, Microsoft New Tai Lue;font-weight:700;letter-spacing:0.02em;}</style></defs><title>garden_logo_horizontal</title><g id="Layer_2" data-name="Layer 2"><g id="Layer_1-2" data-name="Layer 1"><path class="cls-1" d="M78.47,71.9C103.91,58,132.8,53.44,147.71,23.61a22,22,0,0,1-8.16,4.85A78.61,78.61,0,0,0,79,0C35.36,0,0,35.56,0,79.43c0,28.19,13.3,52.08,35.3,66.17.09-.25,11.57-55.3-6.86-85.77,6.88,23.1,10.48,35.43,5.41,64.62C-19.47,96.44,28.2,67.94,20.34,37c5.17,4.4,57.12,45.21,19.9,88.94-.48,8.84-1.26,16.8-1.25,18.88,12-5.3,72.37-37,92.54-82.49C109.67,90.08,87.8,110,60.78,125,60.78,125,49.72,87.62,78.47,71.9Z"/><path class="cls-2" d="M158,79.43c0,43.88-35.36,79.44-79,79.44a78.24,78.24,0,0,1-36.56-9c-.61-.32-5.21,1-7.7,1.4,0-.09,20-8.89,31.7-15.74,16.71,0,31.21,1.72,52.83-14,20.61-17.33,29.64-46.93,29.55-79.25A79.5,79.5,0,0,1,158,79.43Z"/><text class="cls-3" transform="translate(166.91 117.39)">GARDEN</text></g></g></svg>