<svg xmlns="http://www.w3.org/2000/svg" viewBox="0 0 1284.74 1217.48"><defs><style>.cls-1,.cls-4{fill:#8cc63f;}.cls-2{fill:#39b54a;}.cls-3{font-size:289.56px;fill:#fff;font-family:MicrosoftNewTaiLue-Bold, Microsoft New Tai Lue;font-weight:700;letter-spacing:0.02em;}.cls-4{font-size:153.3px;font-family:Playball-Regular, Playball;}</style></defs><title>Asset 4</title><g id="Layer_2" data-name="Layer 2"><g id="Layer_1-2" data-name="Layer 1"><path class="cls-1" d="M639.86,355.11c125.66-68.77,268.32-91.19,342-238.51-19.11,16.6-29.92,20.09-40.33,24C870,54.6,762.53,0,642.37,0,426.94,0,252.31,175.64,252.31,392.31c0,139.2,65.71,257.19,174.34,326.79.47-1.24,57.15-273.09-33.86-423.58,34,114.08,51.77,175,26.69,319.14-263.3-138.33-27.89-279.1-66.73-432C378.3,204.4,634.87,406,451,621.94c-2.38,43.66-6.23,83-6.16,93.26C504.29,689,802.32,532.46,902,307.78c-108,137.1-216,235.38-349.47,309.43C552.49,617.21,497.89,432.75,639.86,355.11Z"/><path class="cls-2" d="M1032.42,392.31c0,216.71-174.62,392.35-390.05,392.35a386.06,386.06,0,0,1-180.56-44.49c-3-1.56-25.73,5.17-38,6.92,0-.4,98.58-43.86,156.61-77.72,82.52,0,154.12,8.48,260.89-69.16,101.82-85.55,146.41-231.78,145.94-391.37A392.18,392.18,0,0,1,1032.42,392.31Z"/><text class="cls-3" transform="translate(30.45 1035.39)">GARDEN</text><text class="cls-4" transform="translate(264.37 1171.49)">- meze bar -</text></g></g></svg>